<svg width="162" height="20" viewBox="0 0 162 20" fill="none" xmlns="http://www.w3.org/2000/svg">
<rect y="8" width="162" height="12" fill="#BDE800"/>
<g clip-path="url(#clip0_204_3908)">
<path d="M3.3 14.7C2.3 14.7 1.5 14.4 0.9 13.8C0.3 13.2 0 12.4 0 11.5V9.8H3.3C3.3 10.3 3.4 10.7 3.7 11C4 11.3 4.4 11.4 5 11.4H11.5C12.1 11.4 12.5 11.3 12.8 11C13 10.8 13.1 10.5 13.1 10.2C13 9.9 12.9 9.6 12.8 9.4C12.5 9.1 12.1 9 11.5 9H3.3C2.3 9 1.5 8.7 0.9 8.1C0.3 7.5 0 6.7 0 5.7V3.3C0 2.3 0.3 1.5 0.9 0.9C1.5 0.3 2.3 0 3.3 0H13.1C14.1 0 14.9 0.3 15.5 0.9C16.1 1.5 16.4 2.3 16.4 3.3V4.9H13.1C13.1 4.4 13 4 12.7 3.7C12.5 3.4 12 3.3 11.4 3.3H4.9C4.3 3.3 3.9 3.4 3.6 3.7C3.5 3.9 3.4 4.2 3.3 4.5C3.4 4.8 3.5 5.1 3.6 5.3C3.8 5.6 4.3 5.7 4.9 5.7H13.1C14.1 5.7 14.9 6 15.5 6.6C16.1 7.2 16.4 8 16.4 9V11.5C16.4 12.5 16.1 13.3 15.5 13.9C14.9 14.5 14.1 14.8 13.1 14.8H3.3V14.7Z" fill="#060606"/>
<path d="M23.7 11.5L22.1 14.8H18L25.4 0H29.4L36.9 14.7H32.8L31.2 11.4H23.7V11.5ZM25.3 8.2H29.4L27.4 4L25.3 8.2Z" fill="#060606"/>
<path d="M41.6999 5.9V14.7H38.3999V0H42.4999L47.3999 8.3L52.3999 0H56.4999V14.7H53.1999V5.8L48.1999 14.7H46.6999L41.6999 5.9Z" fill="#060606"/>
<path d="M63.8001 11.5L62.2001 14.8H58.1001L65.5001 0H69.5001L77.0001 14.7H72.9001L71.3001 11.4H63.8001V11.5ZM65.4001 8.2H69.5001L67.4001 4L65.4001 8.2Z" fill="#060606"/>
<path d="M81.8 4.6V14.7H78.5V0H81.8L93.3 10.1V0H96.6V14.7H93.3L81.8 4.6Z" fill="#060606"/>
<path d="M108 3.3V14.8H104.7V3.3H98.2V0H114.6V3.3H108Z" fill="#060606"/>
<path d="M130.9 8.8H119.4V14.7H116.1V0H119.4V5.6H130.9V0H134.2V14.7H130.9V8.8Z" fill="#060606"/>
<path d="M141.5 11.5L139.9 14.8H135.8L143.2 0H147.2L154.7 14.7H150.6L149 11.4H141.5V11.5ZM143.1 8.2H147.2L145.2 4L143.1 8.2Z" fill="#060606"/>
</g>
<defs>
<clipPath id="clip0_204_3908">
<rect width="154.6" height="14.7" fill="white"/>
</clipPath>
</defs>
</svg>
