<svg width="140" height="140" viewBox="0 0 140 140" fill="none" xmlns="http://www.w3.org/2000/svg">
<rect x="10" y="10" width="120" height="120" fill="white" stroke="white" stroke-width="20"/>
<rect x="20" y="20" width="100" height="100" fill="#BDE800"/>
<path d="M62.0742 83.52H80.1704V85.76H62.0742V83.52Z" fill="white"/>
<path d="M43.9779 44.7399V42.3599C40.8918 42.3599 38.3667 44.8799 38.3667 48.0999V52.8599C36.4028 53.4199 35 55.0999 35 57.1999C35 59.2999 36.4028 61.1199 38.3667 61.5399V66.2999C38.3667 69.3799 40.8918 72.0399 43.9779 72.0399V69.7999C42.1543 69.7999 40.6112 68.2599 40.6112 66.4399V48.2399C40.6112 46.2799 42.014 44.7399 43.9779 44.7399ZM37.1042 57.1999C37.1042 56.3599 37.5251 55.6599 38.2265 55.2399V59.1599C37.6653 58.8799 37.1042 58.0399 37.1042 57.1999Z" fill="#060606"/>
<path d="M105 57.1999C105 55.0999 103.598 53.2799 101.634 52.8599V48.0999C101.634 45.0199 99.1086 42.3599 96.0225 42.3599V44.5999C97.8461 44.5999 99.3892 46.1399 99.3892 47.9599V66.1599C99.3892 67.9799 97.8461 69.5199 96.0225 69.5199V71.7599C99.1086 71.7599 101.634 69.2399 101.634 66.0199V61.2599C103.598 61.1199 105 59.4399 105 57.1999ZM101.634 59.1599V55.2399C102.335 55.6599 102.756 56.3599 102.756 57.1999C102.756 58.0399 102.335 58.8799 101.634 59.1599Z" fill="#060606"/>
<path d="M84.6595 53.8401H89.1485V51.6001H84.6595V50.4801C84.6595 48.6601 83.1164 47.1201 81.2928 47.1201C80.872 47.1201 80.4511 47.2601 80.0303 47.4001C79.6094 46.0001 78.3469 44.8801 76.8038 44.8801C76.383 44.8801 75.9621 45.0201 75.5413 45.1601C75.1204 43.7601 73.8579 42.6401 72.3148 42.6401C71.4731 42.6401 70.6315 42.9201 70.0704 43.4801C69.5092 42.9201 68.6675 42.6401 67.8259 42.6401C66.0022 42.6401 64.4591 44.1801 64.4591 46.0001V47.1201H63.4772C61.6535 47.1201 59.8299 47.8201 58.5674 49.2201C57.8659 49.9201 57.3048 50.7601 57.0243 51.7401H50.9922V53.9801H56.6034V54.1201V60.8401H50.9922V63.0801H56.6034V66.4401C56.6034 67.4201 57.0242 68.5401 57.5854 69.2401L61.0924 73.7201V100.6H81.4331V73.4401L83.2567 69.8001C83.5373 69.1001 83.6776 68.4001 83.6776 67.7001V62.8001H89.2888V60.5601H84.5193C84.6595 60.1401 84.6595 59.8601 84.6595 59.4401V53.8401ZM81.2928 49.2201C81.8539 49.2201 82.4151 49.7801 82.4151 50.3401V59.4401C82.4151 60.0001 81.8539 60.5601 81.2928 60.5601C80.7317 60.5601 80.1706 60.0001 80.1706 59.4401V50.3401C80.1706 49.7801 80.5914 49.2201 81.2928 49.2201ZM76.8038 46.9801C77.365 46.9801 77.9261 47.5401 77.9261 48.1001V50.3401V59.4401C77.9261 60.0001 77.365 60.5601 76.8038 60.5601C76.2427 60.5601 75.6816 60.0001 75.6816 59.4401V48.1001C75.6816 47.5401 76.1024 46.9801 76.8038 46.9801ZM72.1746 44.7401C72.7357 44.7401 73.2968 45.3001 73.2968 45.8601V48.1001V59.4401C73.2968 60.0001 72.7357 60.5601 72.1746 60.5601C71.6134 60.5601 71.0523 60.0001 71.0523 59.4401V53.0001C71.7537 52.4401 72.1746 51.4601 72.1746 50.4801C72.1746 49.5001 71.7537 48.5201 71.0523 47.9601V45.8601C71.0523 45.1601 71.6134 44.7401 72.1746 44.7401ZM68.2467 60.5601C67.5453 58.0401 66.4231 55.8001 64.7397 53.8401H68.8078V59.5801C68.8078 60.0001 68.5273 60.2801 68.2467 60.5601ZM66.5633 45.8601C66.5633 45.3001 67.1245 44.7401 67.6856 44.7401C68.2467 44.7401 68.8078 45.3001 68.8078 45.8601V46.9801H66.5633V45.8601ZM63.1966 81.1401H66.5633C65.8619 82.1201 65.4411 83.2401 65.4411 84.5001C65.4411 85.7601 65.8619 87.0201 66.5633 87.8601H63.1966V81.1401ZM67.6856 84.6401C67.6856 82.8201 69.2287 81.2801 71.0523 81.2801H74.419H78.908V88.0001H74.419H71.0523C69.2287 88.0001 67.6856 86.4601 67.6856 84.6401ZM63.1966 98.3601V90.3801H71.0523H74.419H78.908V98.3601H63.1966ZM81.2928 67.8401C81.2928 68.2601 81.1525 68.5401 81.0122 68.8201L79.0483 72.8801V78.9001H74.5593H71.0523H63.1966V72.7401L59.1285 67.7001C58.8479 67.2801 58.5674 66.8601 58.5674 66.3001V53.9801C58.5674 52.7201 58.9882 51.6001 59.9702 50.6201C60.8118 49.7801 62.0744 49.2201 63.3369 49.2201H68.8078C69.3689 49.2201 69.9301 49.7801 69.9301 50.3401C69.9301 50.9001 69.3689 51.4601 68.8078 51.4601H62.0744V54.2601L62.3549 54.5401C65.0203 57.2001 66.5633 60.8401 66.5633 64.7601V66.3001H68.8078V64.7601C68.8078 64.0601 68.8078 63.3601 68.6675 62.6601C69.0884 62.5201 69.5092 62.2401 69.9301 61.9601C70.4912 62.5201 71.3329 62.8001 72.1746 62.8001C73.0162 62.8001 73.8579 62.5201 74.419 61.9601C74.9802 62.5201 75.8219 62.8001 76.6635 62.8001C77.5052 62.8001 78.3469 62.5201 78.908 61.9601C79.4692 62.5201 80.3108 62.8001 81.1525 62.8001V67.8401H81.2928Z" fill="#060606"/>
<path d="M47.3445 75.54C44.8194 75.54 42.8555 73.44 42.8555 70.92V43.62C42.8555 41.1 44.8194 39 47.3445 39C49.8695 39 51.8334 41.1 51.8334 43.62V71.06C51.8334 73.44 49.8695 75.54 47.3445 75.54Z" fill="white"/>
<path d="M92.655 75.54C90.1299 75.54 88.166 73.44 88.166 70.92V43.62C88.166 41.1 90.1299 39 92.655 39C95.18 39 97.144 41.1 97.144 43.62V71.06C97.144 73.44 95.0398 75.54 92.655 75.54Z" fill="white"/>
</svg>
