<svg width="35" height="50" viewBox="0 0 35 50" fill="none" xmlns="http://www.w3.org/2000/svg">
<path d="M17.5476 45.1098C12.2331 45.1098 8.02148 40.8184 8.02148 35.4292C8.02148 30.04 12.3333 25.7485 17.5476 25.7485C22.7619 25.7485 27.0738 30.04 27.0738 35.4292C27.0738 40.8184 22.8622 45.1098 17.5476 45.1098Z" fill="#FFDE00"/>
<path d="M29.9823 24.5509L30.985 22.2555C31.5867 20.9581 31.8875 19.5609 31.8875 18.0639C31.8875 14.8703 30.3834 11.976 27.8765 10.0798V0H26.3724V12.7745C26.3724 13.6727 25.9713 14.4711 25.3696 15.0699C24.768 15.6687 23.9658 16.0679 23.0633 16.0679H19.1525C18.7514 16.0679 18.3504 15.6687 18.3504 15.2695C18.3504 14.8703 18.7514 14.4711 19.1525 14.4711H23.9658V12.5749L23.7652 12.3752C21.86 10.479 20.8572 7.88423 20.8572 5.18962V3.99202H19.2528V5.08982C19.2528 5.58882 19.2528 6.08782 19.3531 6.58683C19.0523 6.68663 18.7515 6.88623 18.4506 7.08583C18.0495 6.68663 17.4479 6.48703 16.8462 6.48703C16.2446 6.48703 15.6429 6.68663 15.2418 7.08583C14.8407 6.68663 14.2391 6.48703 13.6374 6.48703C13.0358 6.48703 12.4341 6.68663 12.033 7.08583C11.6319 6.68663 11.0303 6.48703 10.4286 6.48703C10.1278 6.48703 9.92724 6.58683 9.62642 6.58683V0H8.02201V8.88224V9.58084C5.01376 11.3772 3.2088 14.6707 3.2088 18.1637C3.2088 19.5609 3.50964 20.9581 4.11129 22.3553L5.11404 24.6507C1.80496 28.0439 0 32.4351 0 37.1258C0 44.2116 5.71568 50 12.7349 50H22.2611C29.2803 50 34.996 44.2116 34.996 37.1258C35.0963 32.3353 33.2914 27.9441 29.9823 24.5509ZM26.4726 16.2675C26.5729 16.2675 26.5729 16.1677 26.4726 16.2675C26.8737 16.9661 27.0743 17.7645 27.0743 18.5629C27.0743 19.4611 26.8737 20.3593 26.4726 21.1577L26.1718 21.6567C24.768 20.8583 23.3641 20.2595 21.86 19.8603C22.1608 19.4611 22.2611 18.9621 22.2611 18.4631V17.6647H22.963C24.3669 17.6647 25.5702 17.1657 26.4726 16.2675ZM8.12229 17.5649C8.42312 18.5629 9.3256 19.3613 10.4286 19.3613C10.7294 19.3613 11.0303 19.2615 11.3311 19.1617C11.4314 19.5609 11.6319 19.9601 12.033 20.2595C10.93 20.6587 9.92725 21.0579 8.9245 21.6567L8.62367 21.1577C8.22257 20.3593 8.02201 19.4611 8.02201 18.5629C8.02201 18.2635 8.02202 17.8643 8.12229 17.5649ZM20.757 17.6647V18.4631C20.757 18.8623 20.3559 19.2615 19.9548 19.2615C19.5537 19.2615 19.1525 18.8623 19.1525 18.4631V17.6647H20.757ZM19.5537 8.18363C20.055 9.88024 20.8572 11.477 22.0605 12.8743H19.1525V8.88224C19.1525 8.58283 19.3531 8.28343 19.5537 8.18363ZM16.7459 8.08383C17.147 8.08383 17.5482 8.48303 17.5482 8.88224V13.5729C17.0468 13.9721 16.7459 14.6707 16.7459 15.3693C16.7459 16.0679 17.0468 16.6667 17.5482 17.1657V18.5629C17.5482 18.9621 17.147 19.3613 16.7459 19.3613C16.3448 19.3613 15.9438 18.9621 15.9438 18.5629V16.9661V8.88224C15.9438 8.38323 16.3448 8.08383 16.7459 8.08383ZM13.5372 8.08383C13.9383 8.08383 14.3393 8.48303 14.3393 8.88224V16.9661V18.5629C14.3393 18.9621 13.9383 19.3613 13.5372 19.3613C13.1361 19.3613 12.7349 18.9621 12.7349 18.5629V16.9661V15.3693V8.88224C12.7349 8.38323 13.1361 8.08383 13.5372 8.08383ZM10.3283 8.08383C10.7294 8.08383 11.1305 8.48303 11.1305 8.88224V15.3693V16.9661C11.1305 17.3653 10.7294 17.7645 10.3283 17.7645C9.92724 17.7645 9.52614 17.3653 9.52614 16.9661V8.88224C9.62641 8.38323 9.92724 8.08383 10.3283 8.08383ZM22.3614 48.3034H12.8352C6.71844 48.3034 1.70467 43.2136 1.70467 37.0259C1.70467 32.5349 3.50963 28.4431 6.71843 25.3493L7.11954 24.9501L5.61541 21.6567C5.11404 20.5589 4.91349 19.3613 4.91349 18.1637C4.91349 15.5689 6.11679 13.1737 8.12229 11.5768V14.0719C7.11954 15.3693 6.51788 16.9661 6.51788 18.6627C6.51788 19.7605 6.81871 20.9581 7.32009 21.9561L8.32284 24.0519L9.02476 23.5529C11.6319 21.8563 14.5399 20.9581 17.6484 20.9581C20.6567 20.9581 23.6649 21.8563 26.2721 23.5529L26.974 24.0519L27.9768 21.9561C28.4781 20.9581 28.779 19.8603 28.779 18.6627C28.779 17.2655 28.3779 15.8683 27.5757 14.6707C27.7762 14.0719 27.9768 13.4731 27.9768 12.7745V12.1756C29.4809 13.7725 30.3834 15.8683 30.3834 18.0639C30.3834 19.2615 30.0825 20.4591 29.6814 21.5569L28.1773 24.8503L28.5784 25.2495C31.7872 28.3433 33.5922 32.4351 33.5922 36.9261C33.4919 43.2136 28.4781 48.3034 22.3614 48.3034Z" fill="#060606"/>
<path d="M13.3359 23.1538C9.4252 24.3514 6.2164 27.2456 4.51172 31.038L5.91558 31.7366C7.41971 28.3434 10.3277 25.8484 13.8373 24.7506L13.3359 23.1538Z" fill="#060606"/>
<path d="M3.40918 34.431L5.01357 34.7304C5.11385 34.2314 5.21413 33.7324 5.41468 33.2334L3.91056 32.7344C3.71001 33.3332 3.50945 33.932 3.40918 34.431Z" fill="#060606"/>
<path d="M11.8324 35.6291L12.033 31.9365H16.4451V33.0343H13.0357L12.9355 34.6311C13.136 34.5313 13.3366 34.5313 13.5371 34.4315C13.7377 34.4315 13.9382 34.3317 14.239 34.3317C14.941 34.3317 15.6429 34.5313 16.044 34.9305C16.5454 35.3297 16.7459 35.8287 16.7459 36.5273C16.7459 36.9265 16.6456 37.2259 16.5454 37.5253C16.4451 37.8247 16.2445 38.0243 15.9437 38.3238C15.6429 38.6232 15.4423 38.723 15.0412 38.8228C14.7404 38.9226 14.3393 39.0224 13.9382 39.0224C13.4368 39.0224 12.9355 38.9226 12.5344 38.8228C12.1333 38.6232 11.7322 38.4236 11.3311 38.1241L12.1332 37.2259C12.4341 37.5253 12.7349 37.6251 13.0357 37.7249C13.3366 37.8247 13.6374 37.9245 13.9382 37.9245C14.3393 37.9245 14.6401 37.8247 14.941 37.6251C15.2418 37.4255 15.3421 37.1261 15.3421 36.8267C15.3421 36.5273 15.2418 36.2279 14.941 36.0283C14.6401 35.8287 14.3393 35.7289 13.8379 35.7289C13.6374 35.7289 13.4368 35.7289 13.2363 35.8287C13.0357 35.8287 12.8352 35.9285 12.6346 36.0283L11.8324 35.6291Z" fill="#060606"/>
<path d="M20.5561 39.0221C20.0547 39.0221 19.6536 38.9223 19.3528 38.7227C18.9517 38.5231 18.6509 38.3235 18.35 38.024C18.0492 37.7246 17.8487 37.3254 17.7484 36.9262C17.6481 36.527 17.5479 36.028 17.5479 35.4292C17.5479 34.9302 17.6481 34.4312 17.7484 33.9322C17.8487 33.533 18.1495 33.1338 18.35 32.8344C18.6509 32.535 18.9517 32.2356 19.3528 32.1358C19.7539 31.9362 20.155 31.8364 20.5561 31.8364C21.0575 31.8364 21.4586 31.9362 21.7594 32.1358C22.1605 32.3354 22.4613 32.535 22.7621 32.8344C23.063 33.1338 23.2635 33.533 23.3638 33.9322C23.4641 34.3314 23.5644 34.8304 23.5644 35.4292C23.5644 35.9282 23.4641 36.4272 23.3638 36.9262C23.2635 37.3254 22.9627 37.7246 22.7621 38.024C22.4613 38.3235 22.1605 38.6229 21.7594 38.7227C21.4586 38.9223 21.0575 39.0221 20.5561 39.0221ZM20.5561 37.8245C21.0575 37.8245 21.5588 37.6248 21.8597 37.2256C22.1605 36.8264 22.361 36.2276 22.361 35.4292C22.361 34.7306 22.1605 34.1318 21.8597 33.6328C21.5588 33.2336 21.1578 32.9342 20.5561 32.9342C19.9545 32.9342 19.6536 33.1338 19.2525 33.6328C18.9517 34.032 18.7511 34.6308 18.7511 35.4292C18.7511 36.1278 18.9517 36.7266 19.2525 37.2256C19.6536 37.6248 20.0547 37.8245 20.5561 37.8245Z" fill="#060606"/>
</svg>
