<svg width="80" height="80" viewBox="0 0 80 80" fill="none" xmlns="http://www.w3.org/2000/svg">
<g clip-path="url(#clip0_135_3666)">
<path d="M24.4999 25.8H19.3999V31H24.4999V52.9H29.6999V31V25.8H24.4999Z" fill="#FFDE00"/>
<path d="M41.3001 25.8H36.1001V31H41.3001V52.9H46.5001V31V25.8H41.3001Z" fill="#FFDE00"/>
<path d="M59.3998 16.8H56.7998V19.4H59.3998V16.8Z" fill="#060606"/>
<path d="M80 59.4H74.8V51.7H69.6V11.4C69.6 9.3 67.9 7.5 65.7 7.5H60.5V3.9C60.5 1.8 58.8 0 56.6 0C54.4 0 52.7 1.7 52.7 3.9V7.8H16.8V3.9C16.8 1.7 15 0 12.9 0C10.8 0 9 1.7 9 3.9V7.6H3.9C1.7 7.6 0 9.3 0 11.4V58C0 60.1 1.7 61.9 3.9 61.9H23.3V72.2H28.5V80H42.7V72.3H60.8V80H75V72.3H80V59.4ZM55.5 3.9C55.5 3.2 56.1 2.6 56.8 2.6C57.5 2.6 58.1 3.2 58.1 3.9V9C58.1 9.7 57.5 10.3 56.8 10.3C56.1 10.3 55.5 9.7 55.5 9V3.9ZM11.6 3.9C11.6 3.2 12.2 2.6 12.9 2.6C13.6 2.6 14.2 3.2 14.2 3.9V9C14.2 9.7 13.6 10.3 12.9 10.3C12.2 10.3 11.6 9.7 11.6 9V3.9ZM3.9 59.4C3.2 59.4 2.6 58.8 2.6 58.1V19.4H54.2V16.8H2.6V11.5C2.6 10.8 3.2 10.2 3.9 10.2H9.2C9.7 11.8 11.1 13 12.9 13C14.6 13 16 11.9 16.5 10.4H53.1C53.6 11.9 55.1 13 56.7 13C58.4 13 59.9 11.8 60.4 10.2H65.7C66.4 10.2 67 10.8 67 11.5V16.8H61.8V19.4H67V51.7H60.5V59.4H42.6V54.2H47.8V24.5H34.8V32.2H40V51.6H31V24.5H18.1V32.2H23.3V54.1H28.5V59.3H23.3H3.9V59.4ZM37.4 29.7V27.1H45.1V51.6H42.5V29.7H37.4ZM20.6 29.7V27.1H28.3V51.6H25.7V29.7H20.6ZM25.8 69.7V62H28.4V69.7H25.8ZM40 77.4H31V72.2V59.4V54.2H40V59.4V72.3V77.4ZM42.6 69.7V62H60.7V69.7H42.6ZM72.3 77.4H63.3V72.2V59.4V54.2H72.3V59.4V72.3V77.4ZM77.4 69.7H74.8V62H77.4V69.7Z" fill="#060606"/>
<path d="M69.7001 56.8H67.1001V59.4H69.7001V56.8Z" fill="#060606"/>
<path d="M69.7001 61.9H67.1001V64.5H69.7001V61.9Z" fill="#060606"/>
<path d="M69.7001 67.1H67.1001V69.7H69.7001V67.1Z" fill="#060606"/>
<path d="M69.7001 72.3H67.1001V74.9001H69.7001V72.3Z" fill="#060606"/>
<path d="M36.1 56.8H33.5V59.4H36.1V56.8Z" fill="#060606"/>
<path d="M36.1 61.9H33.5V64.5H36.1V61.9Z" fill="#060606"/>
<path d="M36.1 67.1H33.5V69.7H36.1V67.1Z" fill="#060606"/>
<path d="M36.1 72.3H33.5V74.9001H36.1V72.3Z" fill="#060606"/>
</g>
<defs>
<clipPath id="clip0_135_3666">
<rect width="80" height="80" fill="white"/>
</clipPath>
</defs>
</svg>
