<svg width="100" height="100" viewBox="0 0 100 100" fill="none" xmlns="http://www.w3.org/2000/svg">
<path d="M69.4002 28.0561C71.0002 28.0561 72.4002 28.4569 73.6002 29.0581C79.6002 27.2545 83.8002 21.4429 83.8002 14.8297C83.8002 6.61323 77.2002 0 69.2002 0C62.4002 0 56.8002 4.80962 55.2002 11.022C56.0002 11.8236 56.4002 13.2265 56.4002 14.6293V14.8297C56.4002 16.6333 56.2002 18.2365 55.6002 19.8397C57.2002 24.2485 60.6002 27.6553 65.0002 29.0581C66.4002 28.2565 67.8002 28.0561 69.4002 28.0561ZM69.4002 8.01603C73.0002 8.01603 75.8002 11.022 75.8002 14.6293C75.8002 18.2365 73.0002 21.2425 69.4002 21.2425C65.8002 21.2425 63.0002 18.2365 63.0002 14.6293C63.0002 11.022 65.8002 8.01603 69.4002 8.01603Z" fill="#FFDE00"/>
<path d="M69.4004 23.0452C73.8004 23.0452 77.4004 19.2376 77.4004 14.8287C77.4004 10.4199 73.8004 6.6123 69.4004 6.6123C65.0004 6.6123 61.4004 10.4199 61.4004 14.8287C61.4004 19.2376 65.0004 23.0452 69.4004 23.0452ZM69.4004 9.81872C72.0004 9.81872 74.2004 12.0231 74.2004 14.8287C74.2004 17.6343 72.0004 19.6384 69.4004 19.6384C66.8004 19.6384 64.6004 17.4339 64.6004 14.6283C64.6004 11.8227 66.6004 9.81872 69.4004 9.81872Z" fill="#060606"/>
<path d="M100 44.489C100 41.6833 97.8 39.4789 95.2 39.4789H87.2V37.8757C87.2 32.4649 84.8 27.4549 80.8 23.8477C80.2 24.6493 79.4 25.4509 78.6 26.2525C82 29.0581 84 33.2665 84 37.8757V39.4789H80.8V37.8757C80.8 31.4629 75.8 26.2525 69.6 26.2525C63.4 26.2525 58.4 31.4629 58.4 37.8757V39.4789H55.2V37.8757C55.2 33.2665 57.2 29.0581 60.6 26.2525C59.8 25.6513 59 24.8497 58.4 23.8477C55.4 26.4529 53.4 29.8597 52.4 33.6673C52.2 33.0661 52 32.2645 52 31.4629C52 30.4609 52.2 29.4589 52.8 28.6573L55.4 24.4489C57.4 21.4429 58.4 18.036 58.4 14.2284C58.4 9.81962 54.8 6.2124 50.6 6.2124H50C47.4 6.2124 45.2 8.41681 45.2 11.2224C45.2 14.028 44.2 16.6332 42.4 18.8377L36.8 25.2505C34 28.6573 32.4 32.8657 32.4 37.2745V41.0821C32.4 44.0882 30.4 46.6934 27.6 47.495L0 54.9098V100L42.2 82.5651H48.4V84.1683C48.4 86.9739 50.6 89.1783 53.2 89.1783H59.6C62.2 89.1783 64.4 86.9739 64.4 84.1683V82.5651H74V84.1683C74 86.9739 76.2 89.1783 78.8 89.1783H85.2C87.8 89.1783 90 86.9739 90 84.1683V82.5651H94.8C97.4 82.5651 99.6 80.3607 99.6 77.5551V74.1483C99.6 72.9459 99.2 71.7435 98.4 70.7415C99.2 69.9399 99.6 68.7375 99.6 67.3346V63.9278C99.6 62.7254 99.2 61.523 98.4 60.521C99.2 59.7194 99.6 58.517 99.6 57.1142V53.7074C99.6 52.505 99.2 51.3026 98.4 50.3006C99.2 49.499 99.6 48.2966 99.6 46.8938L100 44.489ZM83.8 44.489C83.8 43.4869 84.6 42.8857 85.4 42.8857H95C95.8 42.8857 96.6 43.6874 96.6 44.489V47.8958C96.6 48.8978 95.8 49.499 95 49.499H85.4C84.6 49.499 83.8 48.6974 83.8 47.8958V44.489ZM96.8 54.509V57.9158C96.8 58.9178 96 59.519 95.2 59.519H85.6C84.8 59.519 84 58.7174 84 57.9158V54.509C84 53.507 84.8 52.9058 85.6 52.9058H95.2C96 52.9058 96.8 53.507 96.8 54.509ZM96.8 64.3286V67.7355C96.8 68.7375 96 69.3387 95.2 69.3387H85.6C84.8 69.3387 84 68.5371 84 67.7355V64.3286C84 63.3266 84.8 62.7254 85.6 62.7254H95.2C96 62.7254 96.8 63.527 96.8 64.3286ZM74.2 49.499H71V42.8857H75.2C74.6 43.6874 74.2 44.8898 74.2 45.8918V49.499ZM71 62.7254H74.2V69.3387H71V62.7254ZM71 59.519V52.9058H74.2V59.519H71ZM69.4 29.6593C73.8 29.6593 77.4 33.4669 77.4 37.8757V39.4789H61.2V37.8757C61.2 33.2665 65 29.6593 69.4 29.6593ZM42.4 79.3587C40.8 78.5571 39.8 76.9539 39.2 75.3507L38.8 73.9479L35.8 74.9499L36.2 76.3527C36.8 77.9559 37.6 79.3587 38.8 80.5611L3.2 95.1904V57.515L28.2 51.1022C32.6 49.8998 35.6 46.0922 35.6 41.4829V37.6753C35.6 34.0681 37 30.4609 39.2 27.8557L44.8 21.4429C47.2 18.8377 48.4 15.2304 48.4 11.6232C48.4 10.4208 49.2 9.81962 50 9.81962H50.2C52.8 9.81962 54.8 12.024 54.8 14.8296C54.8 17.8356 54 20.6413 52.4 23.0461L49.8 27.2545C49 28.6573 48.4 30.2605 48.4 31.8637C48.4 34.0681 49.2 36.2725 50.8 37.8757L51.6 38.6773V40.6813L49.8 42.4849C48.8 43.4869 48.4 44.6894 48.4 46.0922V79.5591H42.4V79.3587ZM51.6 75.9519H53.2C54 75.9519 54.8 76.7535 54.8 77.5551C54.8 78.3567 54 79.1583 53.2 79.1583H51.6V75.9519ZM51.6 62.7254H53.2C54 62.7254 54.8 63.527 54.8 64.3286C54.8 65.3306 54 65.9318 53.2 65.9318H51.6V62.7254ZM51.6 49.499H53.2C54 49.499 54.8 50.3006 54.8 51.1022C54.8 52.1042 54 52.7054 53.2 52.7054H51.6V49.499ZM61.2 84.3687C61.2 85.3707 60.4 85.9719 59.6 85.9719H53.2C52.4 85.9719 51.6 85.1703 51.6 84.3687V82.7655H53.2C55.8 82.7655 58 80.5611 58 77.7555C58 74.9499 55.8 72.7455 53.2 72.7455H51.6V69.3387H53.2C55.8 69.3387 58 67.1342 58 64.3286C58 61.523 55.8 59.3186 53.2 59.3186H51.6V55.9118H53.2C55.8 55.9118 58 53.7074 58 50.9018C58 48.0962 55.8 45.8918 53.2 45.8918H51.6C51.6 45.491 51.8 45.0902 52 44.6894L53.8 42.8857H59L60.8 44.6894C61.2 45.0902 61.2 45.491 61.2 45.8918V84.3687ZM64.6 79.3587V45.8918C64.6 44.6894 64.2 43.6874 63.6 42.8857H67.8V72.7455H74.2V79.3587H64.6ZM87 84.3687C87 85.3707 86.2 85.9719 85.4 85.9719H79C78.2 85.9719 77.4 85.1703 77.4 84.3687V45.8918C77.4 45.491 77.6 45.0902 77.8 44.6894L79.6 42.8857H80.8C80.6 43.4869 80.6 43.8878 80.6 44.489V47.8958C80.6 49.0982 81 50.3006 81.8 51.3026C81 52.1042 80.6 53.3066 80.6 54.7094V58.1162C80.6 59.3186 81 60.521 81.8 61.523C81 62.3246 80.6 63.527 80.6 64.9298V68.3367C80.6 69.5391 81 70.7415 81.8 71.7435C81 72.5451 80.6 73.7475 80.6 75.1503V78.5571C80.6 81.3627 82.8 83.5671 85.4 83.5671H87V84.3687ZM96.8 77.7555C96.8 78.7575 96 79.3587 95.2 79.3587H85.6C84.8 79.3587 84 78.5571 84 77.7555V74.3487C84 73.3467 84.8 72.7455 85.6 72.7455H95.2C96 72.7455 96.8 73.5471 96.8 74.3487V77.7555Z" fill="#060606"/>
</svg>
