<svg width="50" height="50" viewBox="0 0 50 50" fill="none" xmlns="http://www.w3.org/2000/svg">
<path d="M19.3389 34.7998H32.2647V36.3998H19.3389V34.7998Z" fill="#FFDE00"/>
<path d="M6.41282 7.0999V5.3999C4.20841 5.3999 2.4048 7.1999 2.4048 9.4999V12.8999C1.002 13.2999 0 14.4999 0 15.9999C0 17.4999 1.002 18.7999 2.4048 19.0999V22.4999C2.4048 24.6999 4.20841 26.5999 6.41282 26.5999V24.9999C5.11022 24.9999 4.00802 23.8999 4.00802 22.5999V9.5999C4.00802 8.1999 5.01001 7.0999 6.41282 7.0999ZM1.50301 15.9999C1.50301 15.3999 1.80361 14.8999 2.30461 14.5999V17.3999C1.90381 17.1999 1.50301 16.5999 1.50301 15.9999Z" fill="#060606"/>
<path d="M49.9997 15.9999C49.9997 14.4999 48.9977 13.1999 47.5949 12.8999V9.4999C47.5949 7.2999 45.7913 5.3999 43.5869 5.3999V6.9999C44.8895 6.9999 45.9917 8.0999 45.9917 9.3999V22.3999C45.9917 23.6999 44.8895 24.7999 43.5869 24.7999V26.3999C45.7913 26.3999 47.5949 24.5999 47.5949 22.2999V18.8999C48.9977 18.7999 49.9997 17.5999 49.9997 15.9999ZM47.5949 17.3999V14.5999C48.0959 14.8999 48.3965 15.3999 48.3965 15.9999C48.3965 16.5999 48.0959 17.1999 47.5949 17.3999Z" fill="#060606"/>
<path d="M35.471 13.6001H38.6774V12.0001H35.471V11.2001C35.471 9.9001 34.3688 8.8001 33.0661 8.8001C32.7655 8.8001 32.4649 8.9001 32.1643 9.0001C31.8637 8.0001 30.9619 7.2001 29.8597 7.2001C29.5591 7.2001 29.2585 7.3001 28.9579 7.4001C28.6573 6.4001 27.7555 5.6001 26.6533 5.6001C26.0521 5.6001 25.4509 5.8001 25.0501 6.2001C24.6493 5.8001 24.0481 5.6001 23.4469 5.6001C22.1443 5.6001 21.0421 6.7001 21.0421 8.0001V8.8001H20.3407C19.0381 8.8001 17.7355 9.3001 16.8337 10.3001C16.3327 10.8001 15.9319 11.4001 15.7315 12.1001H11.4229V13.7001H15.4309V13.8001V18.6001H11.4229V20.2001H15.4309V22.6001C15.4309 23.3001 15.7315 24.1001 16.1323 24.6001L18.6373 27.8001V47.0001H33.1663V27.6001L34.4689 25.0001C34.6693 24.5001 34.7696 24.0001 34.7696 23.5001V20.0001H38.7776V18.4001H35.3708C35.471 18.1001 35.471 17.9001 35.471 17.6001V13.6001ZM33.0661 10.3001C33.4669 10.3001 33.8678 10.7001 33.8678 11.1001V17.6001C33.8678 18.0001 33.4669 18.4001 33.0661 18.4001C32.6653 18.4001 32.2645 18.0001 32.2645 17.6001V11.1001C32.2645 10.7001 32.5651 10.3001 33.0661 10.3001ZM29.8597 8.7001C30.2605 8.7001 30.6613 9.1001 30.6613 9.5001V11.1001V17.6001C30.6613 18.0001 30.2605 18.4001 29.8597 18.4001C29.4589 18.4001 29.0581 18.0001 29.0581 17.6001V9.5001C29.0581 9.1001 29.3587 8.7001 29.8597 8.7001ZM26.5531 7.1001C26.9539 7.1001 27.3547 7.5001 27.3547 7.9001V9.5001V17.6001C27.3547 18.0001 26.9539 18.4001 26.5531 18.4001C26.1523 18.4001 25.7515 18.0001 25.7515 17.6001V13.0001C26.2525 12.6001 26.5531 11.9001 26.5531 11.2001C26.5531 10.5001 26.2525 9.8001 25.7515 9.4001V7.9001C25.7515 7.4001 26.1523 7.1001 26.5531 7.1001ZM23.7475 18.4001C23.2465 16.6001 22.4449 15.0001 21.2425 13.6001H24.1483V17.7001C24.1483 18.0001 23.9479 18.2001 23.7475 18.4001ZM22.5451 7.9001C22.5451 7.5001 22.9459 7.1001 23.3467 7.1001C23.7475 7.1001 24.1483 7.5001 24.1483 7.9001V8.7001H22.5451V7.9001ZM20.1403 33.1001H22.5451C22.0441 33.8001 21.7435 34.6001 21.7435 35.5001C21.7435 36.4001 22.0441 37.3001 22.5451 37.9001H20.1403V33.1001ZM23.3467 35.6001C23.3467 34.3001 24.4489 33.2001 25.7515 33.2001H28.1563H31.3627V38.0001H28.1563H25.7515C24.4489 38.0001 23.3467 36.9001 23.3467 35.6001ZM20.1403 45.4001V39.7001H25.7515H28.1563H31.3627V45.4001H20.1403ZM33.0661 23.6001C33.0661 23.9001 32.966 24.1001 32.8657 24.3001L31.4629 27.2001V31.5001H28.2565H25.7515H20.1403V27.1001L17.2345 23.5001C17.0341 23.2001 16.8337 22.9001 16.8337 22.5001V13.7001C16.8337 12.8001 17.1343 12.0001 17.8357 11.3001C18.4369 10.7001 19.3387 10.3001 20.2405 10.3001H24.1483C24.5491 10.3001 24.9499 10.7001 24.9499 11.1001C24.9499 11.5001 24.5491 11.9001 24.1483 11.9001H19.3387V13.9001L19.5391 14.1001C21.4429 16.0001 22.5451 18.6001 22.5451 21.4001V22.5001H24.1483V21.4001C24.1483 20.9001 24.1483 20.4001 24.0481 19.9001C24.3487 19.8001 24.6493 19.6001 24.9499 19.4001C25.3507 19.8001 25.9519 20.0001 26.5531 20.0001C27.1543 20.0001 27.7555 19.8001 28.1563 19.4001C28.5571 19.8001 29.1583 20.0001 29.7595 20.0001C30.3607 20.0001 30.9619 19.8001 31.3627 19.4001C31.7635 19.8001 32.3647 20.0001 32.9659 20.0001V23.6001H33.0661Z" fill="#060606"/>
<path d="M8.81775 29.1C7.01415 29.1 5.61133 27.6 5.61133 25.8V6.3C5.61133 4.5 7.01415 3 8.81775 3C10.6214 3 12.0242 4.5 12.0242 6.3V25.9C12.0242 27.6 10.6214 29.1 8.81775 29.1Z" fill="#FFDE00"/>
<path d="M41.182 29.1C39.3784 29.1 37.9756 27.6 37.9756 25.8V6.3C37.9756 4.5 39.3784 3 41.182 3C42.9856 3 44.3884 4.5 44.3884 6.3V25.9C44.3884 27.6 42.8854 29.1 41.182 29.1Z" fill="#FFDE00"/>
</svg>
