<svg width="80" height="80" viewBox="0 0 80 80" fill="none" xmlns="http://www.w3.org/2000/svg">
<path d="M65.1002 12.4H15.9002C11.4002 12.4 7.7002 16 7.7002 20.5V59.4C7.7002 63.9 11.4002 67.5 15.9002 67.5H65.2002C69.7002 67.5 73.4002 63.9 73.4002 59.4V20.5C73.3002 16.1 69.7002 12.4 65.1002 12.4ZM29.0002 53V27L55.3002 40L29.0002 53Z" fill="#FFDE00"/>
<path d="M64.6 8.8C71.5 8.8 77.2 14.4 77.2 21.2V58.9C77.2 65.8 71.6 71.3 64.6 71.3H15.4C8.5 71.3 2.8 65.7 2.8 58.9V21.2C2.8 14.3 8.4 8.8 15.4 8.8H64.6ZM64.6 6H15.4C6.9 6 0 12.8 0 21.2V58.9C0 67.2 6.9 74 15.4 74H64.7C73.1 74 80 67.2 80 58.8V21.2C80 12.8 73.1 6 64.6 6Z" fill="#060606"/>
<path d="M17.5002 35.1H14.2002V22.1C14.2002 20.3 15.7002 18.9 17.5002 18.9H24.1002V22.1H17.5002V35.1Z" fill="#060606"/>
<path d="M14.2002 38.4H17.5002V41.6H14.2002V38.4Z" fill="#060606"/>
<path d="M14.2002 44.9H17.5002V48.1H14.2002V44.9Z" fill="#060606"/>
<path d="M66.8 57.9H63.5V54.7H66.8V57.9ZM66.8 51.4H63.5V48.2H66.8V51.4ZM66.8 44.9H63.5V41.7H66.8V44.9Z" fill="#060606"/>
<path d="M27.4004 55.6V24.4L59.0004 40L27.4004 55.6ZM30.6004 29.6V50.3L51.6004 39.9L30.6004 29.6Z" fill="#060606"/>
</svg>
