<svg width="65" height="45" viewBox="0 0 65 45" fill="none" xmlns="http://www.w3.org/2000/svg">
<g clip-path="url(#clip0_179_6843)">
<path d="M50.7995 45.0001C58.5995 45.0001 64.9995 38.7001 64.9995 30.9001C64.9995 23.4001 59.0995 17.1001 51.5995 16.7001C51.4995 15.3001 51.5995 11.5001 55.1995 6.3001C55.4995 5.9001 55.3995 5.4001 55.0995 5.0001C53.5995 3.5001 52.6995 2.6001 52.0995 1.9001C51.2995 1.0001 50.8995 0.700098 50.2995 0.200098C49.8995 -0.0999023 49.3995 -0.0999023 48.9995 0.200098C40.3995 8.0001 35.8995 19.3001 36.6995 30.9001C37.1995 39.1001 43.1995 45.0001 50.7995 45.0001Z" fill="#D8FF56"/>
<path d="M0.0998777 30.9C0.699878 39.1 6.69988 45 14.2999 45C22.0999 45 28.4999 38.7 28.4999 30.9C28.4999 23.4 22.5999 17.1 15.0999 16.7C14.9999 15.3 15.0999 11.5 18.6999 6.3C18.9999 5.9 18.8999 5.4 18.5999 5C17.0999 3.5 16.1999 2.6 15.5999 1.9C14.7999 1 14.3999 0.7 13.7999 0.1C13.5999 0.1 13.2999 0 13.0999 0C12.8999 0 12.5999 0.1 12.3999 0.2C3.79988 8.1 -0.700122 19.4 0.0998777 30.9Z" fill="#D8FF56"/>
</g>
<defs>
<clipPath id="clip0_179_6843">
<rect width="65" height="45" fill="white"/>
</clipPath>
</defs>
</svg>
