<svg width="65" height="45" viewBox="0 0 65 45" fill="none" xmlns="http://www.w3.org/2000/svg">
<g opacity="0.1" clip-path="url(#clip0_26_45)">
<path d="M50.8 45C58.6 45 65 38.7 65 30.9C65 23.4 59.1 17.1 51.6 16.7C51.5 15.3 51.6 11.5 55.2 6.30001C55.5 5.90001 55.4 5.40001 55.1 5.00001C53.6 3.50001 52.7 2.60001 52.1 1.90001C51.3 1.00001 50.9 0.700006 50.3 0.200006C49.9 -0.0999939 49.4 -0.0999939 49 0.200006C40.4 8.00001 35.9 19.3 36.7 30.9C37.2 39.1 43.2 45 50.8 45Z" fill="#060606"/>
<path d="M0.0999998 30.9C0.7 39.1 6.7 45 14.3 45C22.1 45 28.5 38.7 28.5 30.9C28.5 23.4 22.6 17.1 15.1 16.7C15 15.3 15.1 11.5 18.7 6.3C19 5.9 18.9 5.4 18.6 5C17.1 3.5 16.2 2.6 15.6 1.9C14.8 1 14.4 0.7 13.8 0.1C13.6 0.1 13.3 0 13.1 0C12.9 0 12.6 0.1 12.4 0.2C3.8 8.1 -0.7 19.4 0.0999998 30.9Z" fill="#060606"/>
</g>
<defs>
<clipPath id="clip0_26_45">
<rect width="65" height="45" fill="white"/>
</clipPath>
</defs>
</svg>
