<svg width="65" height="46" viewBox="0 0 65 46" fill="none" xmlns="http://www.w3.org/2000/svg">
<path d="M50.8002 46.0001C58.6002 46.0001 65.0002 39.7001 65.0002 31.9001C65.0002 24.4001 59.1002 18.1001 51.6002 17.7001C51.5002 16.3001 51.6002 12.5001 55.2002 7.3001C55.5002 6.9001 55.4002 6.4001 55.1002 6.0001C53.6002 4.5001 52.7002 3.6001 52.1002 2.9001C51.3002 2.0001 50.9002 1.7001 50.3002 1.2001C49.9002 0.900098 49.4002 0.900098 49.0002 1.2001C40.4002 9.0001 35.9002 20.3001 36.7002 31.9001C37.2002 40.1001 43.2002 46.0001 50.8002 46.0001Z" fill="#BDE800"/>
<path d="M0.100122 31.9C0.700122 40.1 6.70012 46 14.3001 46C22.1001 46 28.5001 39.7 28.5001 31.9C28.5001 24.4 22.6001 18.1 15.1001 17.7C15.0001 16.3 15.1001 12.5 18.7001 7.3C19.0001 6.9 18.9001 6.4 18.6001 6C17.1001 4.5 16.2001 3.6 15.6001 2.9C14.8001 2 14.4001 1.7 13.8001 1.1C13.6001 1.1 13.3001 1 13.1001 1C12.9001 1 12.6001 1.1 12.4001 1.2C3.80012 9.1 -0.699878 20.4 0.100122 31.9Z" fill="#BDE800"/>
</svg>
