<svg width="30" height="30" viewBox="0 0 30 30" fill="none" xmlns="http://www.w3.org/2000/svg">
<path d="M19.4 14.5C19.4 12.7 19.5 10.9 19.8 9.10003L20.3 5.90002L17.9 5.40002L17.8 5.90002C17.6 7.30002 16.4 8.30002 15 8.30002C13.6 8.30002 12.4 7.30002 12.2 5.90002L12.1 5.40002L9.69995 5.90002L10.2 9.10003C10.5 10.9 10.6 12.7 10.6 14.5C10.6 15.8 9.89995 17.1 8.69995 17.7L9.69995 24.6V25C9.69995 25 12 24.5 15 24.5C18 24.5 20.3 25 20.3 25V24.5L21.3 17.6C20.1 17.1 19.4 15.8 19.4 14.5Z" fill="#FFDE00"/>
<path d="M30 3.4V2.4H26.7L26.6 2.9H18.4C18.4 2.7 18.4 2.5 18.4 2.5C19.4 2.1 20.3 1.4 20.7 0.7L20.8 0.6V0H19.8V0.3C19.3 1 18.4 1.4 17.7 1.7L17.4 1.8V2.9H12.6V1.9L12.3 1.8C11.6 1.5 10.7 1.1 10.2 0.4V0H9.2V0.6L9.3 0.7C9.8 1.4 10.6 2 11.6 2.5V2.9H3.4L3.3 2.5H0V3.5H2.5L2.9 5.4L1.9 7.2V8.9L5.5 16.9L6.7 8.1L9.3 6.8L9.7 9.1C10 10.8 10.1 12.6 10.1 14.4C10.1 15.3 9.7 16.2 9 16.7L8.9 15.7L6.9 20.4H4.2L0.9 14L0 14.4L3.5 21.5H7.5L8.4 19.4L9.1 24.5L8.6 29.8L9.6 29.9L10 25.4C10.7 25.3 12.6 25 14.9 25C17.2 25 19.1 25.3 19.8 25.4L20.2 29.9L21.2 29.8L20.7 24.5L21.4 19.4L22.3 21.5H26.3L29.8 14.4L29.1 14L25.8 20.6H23L21 15.9L20.9 16.9C20.2 16.3 19.8 15.5 19.8 14.6C19.8 12.8 19.9 11 20.2 9.3L20.6 7L23.2 8.3L24.4 17.1L28 9.1V7.2L27.1 5.3L27.5 3.4H30ZM6.3 3.9V4.4H7.3V3.9H22.8V4.4H23.8V3.9H26.5L26.3 4.9H3.8L3.6 3.9H6.3ZM17.3 5.9C17.1 7 16.1 7.9 15 7.9C13.9 7.9 12.9 7.1 12.7 5.9H17.3ZM5.8 7.5L5 13.4L2.9 8.7V7.5L3.7 5.9H9.1L5.8 7.5ZM20.8 17.9L19.9 24.4C19 24.3 17.2 24 15.1 24C13 24 11.1 24.2 10.3 24.4L9.4 17.9C10.6 17.2 11.3 15.9 11.3 14.5C11.3 12.7 11.1 10.8 10.9 9L10.5 6.4L11.5 5.9H11.9V6C12 7.6 13.4 8.8 15 8.8C16.6 8.8 18 7.6 18.3 6V5.9H18.7L19.7 6.4L19.3 9C19 10.8 18.9 12.6 18.9 14.5C18.9 15.9 19.6 17.2 20.8 17.9ZM27.1 8.7L24.9 13.5L24.1 7.6L20.9 6H26.3L27.1 7.6V8.7Z" fill="#060606"/>
</svg>
