<svg width="30" height="30" viewBox="0 0 30 30" fill="none" xmlns="http://www.w3.org/2000/svg">
<path d="M12.224 20.8585H10.9859C10.3192 20.8585 9.65258 20.4729 9.17639 19.8946L8.7002 19.2199L9.4621 18.738L9.93829 19.4127C10.1288 19.7982 10.5097 19.991 10.8907 19.991H12.1288C12.224 19.991 12.3192 19.991 12.3192 19.991L13.8431 19.7018C13.9383 19.7018 14.0335 19.6054 14.0335 19.4127V17.1958H14.9859V19.4127C14.9859 19.991 14.605 20.4729 14.0335 20.6657L12.605 20.8585C12.5097 20.8585 12.4145 20.8585 12.224 20.8585Z" fill="#FFDE00"/>
<path d="M12.5097 25.1001H10.9859C10.3192 25.1001 9.65258 24.7146 9.17639 24.1362L8.7002 23.4615L9.4621 22.9796L9.93829 23.6543C10.1288 24.0399 10.5097 24.2326 10.8907 24.2326H12.4145C12.605 24.2326 12.7954 24.2326 12.9859 24.1362L14.0335 23.5579C14.1288 23.4615 14.224 23.3652 14.224 23.2688V21.3411H15.1764V23.2688C15.1764 23.7507 14.8907 24.1362 14.5097 24.329L13.4621 24.9073C13.0811 25.1001 12.7954 25.1001 12.5097 25.1001Z" fill="#FFDE00"/>
<path d="M18.4143 20.8591H17.1762C17.081 20.8591 16.8905 20.8591 16.7953 20.8591L15.2715 20.57C14.7 20.4736 14.3191 19.9917 14.3191 19.317V17.1001H15.2715V19.317C15.2715 19.4133 15.3667 19.6061 15.4619 19.6061L16.9858 19.8953C17.081 19.8953 17.1762 19.8953 17.1762 19.8953H18.4143C18.7953 19.8953 19.1762 19.7025 19.3667 19.317L19.8429 18.6423L20.6048 19.1242L20.2239 19.8953C19.7477 20.57 19.1762 20.8591 18.4143 20.8591Z" fill="#FFDE00"/>
<path d="M18.4141 25.1001H16.8903C16.6046 25.1001 16.2236 25.0037 15.9379 24.9073L14.8903 24.329C14.5093 24.1362 14.2236 23.6543 14.2236 23.2688V21.3411H15.176V23.2688C15.176 23.3652 15.2713 23.4615 15.3665 23.5579L16.4141 24.1362C16.6046 24.2326 16.7951 24.2326 16.9855 24.2326H18.5093C18.8903 24.2326 19.2713 24.0399 19.4617 23.6543L19.9379 22.9796L20.6998 23.4615L20.2236 24.1362C19.7474 24.8109 19.176 25.1001 18.4141 25.1001Z" fill="#FFDE00"/>
<path d="M4.1001 10.1001L3.9001 11.6001C3.6001 13.4001 2.8001 14.6001 1.3001 15.2001L0.900098 15.4001L1.0001 15.7001C1.3001 17.2001 1.0001 18.7001 0.100098 20.3001L0.900098 20.8001C1.9001 19.2001 2.2001 17.6001 2.0001 15.9001C3.2001 15.3001 4.0001 14.4001 4.5001 13.1001L6.3001 16.8001L6.8001 19.6001L6.3001 26.8001L5.4001 29.7001L6.3001 30.0001L7.3001 27.1001L7.8001 19.6001L7.3001 16.6001L4.1001 10.1001Z" fill="#060606"/>
<path d="M3.7 0.8L3.1 0C1.3 1.4 0.3 3.6 0 6.7L1 6.8C1.2 3.9 2.1 2 3.7 0.8Z" fill="#060606"/>
<path d="M29 15.7L29.1 15.3L28.7001 15.1C27.2001 14.5 26.4001 13.3 26.1 11.5L25.9 10L22.8 16.3L22.3 19.4L22.8 26.8L23.8 29.9L24.7001 29.6L23.8 26.7L23.3 19.5L23.8 16.7L25.6 13C26.1 14.3 26.9001 15.3 28.1 15.8C27.9001 17.4 28.2001 19.1 29.2001 20.7L30 20.2C29 18.7 28.7 17.2 29 15.7Z" fill="#060606"/>
<path d="M29 6.8L30 6.7C29.7 3.5 28.7 1.3 26.9 0L26.3 0.8C27.9 2 28.8 3.9 29 6.8Z" fill="#060606"/>
<path d="M24.7001 9.4001L23.8 9.1001C23.4 10.6001 22.6 12.8001 22 13.2001C21.1 13.9001 19.6 14.2001 18.5 14.1001C17.9 14.0001 16.9 13.6001 15.8 13.0001C15.7 12.9001 15.6 12.8001 15.6 12.6001V10.7001H14.6V12.6001C14.6 12.8001 14.5 12.9001 14.4 13.0001C13.3 13.6001 12.3 14.1001 11.7 14.1001C10.6 14.2001 9.00005 13.9001 8.20005 13.2001C7.60005 12.8001 6.80005 10.5001 6.40005 9.1001L5.30005 9.4001C5.50005 10.0001 6.40005 13.2001 7.50005 14.0001C8.40005 14.7001 9.80005 15.1001 11.1 15.1001C11.3 15.1001 11.5 15.1001 11.7 15.1001C12.6 15.0001 13.9 14.4001 14.8 13.8001C14.9 13.8001 15 13.7001 15 13.6001C15.1 13.7001 15.1 13.7001 15.2 13.8001C16.1 14.3001 17.4 14.9001 18.3 15.1001C18.5 15.1001 18.7 15.1001 18.9 15.1001C20.2 15.1001 21.6 14.7001 22.5 14.0001C23.6 13.2001 24.5 10.0001 24.7001 9.4001Z" fill="#060606"/>
<path d="M4.2 8.09995C4.8 7.39995 5.1 6.49995 5.2 6.09995C7.3 4.89995 8.1 2.59995 8.1 2.49995L7.3 2.19995C7.3 2.19995 6.5 4.39995 4.6 5.39995L4.4 5.49995V5.69995C4.4 5.69995 4.2 6.69995 3.5 7.39995L4.2 8.09995Z" fill="#060606"/>
<path d="M13.5999 2.7999C11.8999 2.6999 10.3999 1.8999 10.3999 1.8999L9.8999 2.7999C9.9999 2.7999 11.5999 3.7999 13.4999 3.7999L13.5999 2.7999Z" fill="#060606"/>
<path d="M24.7999 6.10005C24.8999 6.50005 25.1999 7.40005 25.7999 8.10005L26.5 7.50005C25.9 6.80005 25.6 5.80005 25.6 5.80005L25.5 5.60005L25.2999 5.50005C23.3999 4.50005 22.6 2.40005 22.6 2.30005L21.7 2.60005C21.8 2.60005 22.6999 4.90005 24.7999 6.10005Z" fill="#060606"/>
<path d="M20.0999 2.7999L19.5999 1.8999C19.5999 1.8999 18.0999 2.6999 16.3999 2.7999V3.7999C18.3999 3.6999 19.9999 2.7999 20.0999 2.7999Z" fill="#060606"/>
<path d="M15.5 8.69995H14.5V9.69995H15.5V8.69995Z" fill="#060606"/>
<path d="M21.2999 27.9L20.9999 27.5C20.9999 27.5 19.7999 28.4 19.3999 29.7L20.2999 30C20.5999 29 21.5999 28.3 21.5999 28.3L21.2999 27.9Z" fill="#060606"/>
<path d="M8.9999 27.5L8.3999 28.3C8.3999 28.3 9.2999 29 9.6999 30L10.5999 29.7C10.1999 28.3 8.9999 27.5 8.9999 27.5Z" fill="#060606"/>
</svg>
