<svg width="30" height="31" viewBox="0 0 30 31" fill="none" xmlns="http://www.w3.org/2000/svg">
<path d="M7.92661 28.2233C5.01691 28.2233 2.60889 25.7583 2.60889 22.7798H3.61223C3.61223 25.2448 5.61892 27.1962 8.02695 27.1962V28.2233H7.92661Z" fill="#060606"/>
<path d="M7.92642 30.791C3.51171 30.791 0 27.1962 0 22.7798H1.00334C1.00334 26.6827 4.11371 29.7639 7.92642 29.7639C10.6355 29.7639 13.0435 28.1206 14.2475 25.6556L14.5485 25.0394L15.0502 25.4502C15.9532 26.2719 17.1572 26.6827 18.3612 26.6827C20.3679 26.6827 21.6722 25.9637 23.4783 24.0123C24.9833 22.369 27.4916 22.0608 28.2943 22.0608C28.9967 20.931 29.2977 19.4931 29.2977 17.8498C29.2977 10.763 23.1773 1.93006 21.8729 1.62194C21.4716 1.51923 20.5686 1.62194 19.4649 1.72465C18.3612 1.93006 16.9565 2.13548 15.4515 2.03277C15.0502 2.64902 14.0468 4.39506 13.9465 5.83297C14.6488 6.44922 17.3579 7.88713 20.0669 7.16817C20.1672 7.06546 20.4682 6.34651 20.5686 5.62755V5.42214L20.7692 5.31943C21.4716 4.9086 22.2742 5.0113 22.8763 5.62755C24.3813 7.16817 25.485 11.9954 24.0803 14.255C23.0769 15.8984 22.7759 16.4119 22.7759 17.5417L22.6756 18.5688L21.8729 17.8498C20.9699 17.0281 19.8662 16.6173 18.2609 16.6173C16.5552 16.6173 15.1505 17.2336 14.2475 18.4661L13.8462 18.9796L13.4448 18.4661C12.1405 16.72 10.1338 15.6929 7.92642 15.6929C6.52174 15.6929 5.21739 16.1038 4.01338 16.9254L3.41137 16.1038C4.71572 15.1794 6.22074 14.7686 7.82609 14.7686C10.1338 14.7686 12.2408 15.6929 13.7458 17.439C14.8495 16.3092 16.3545 15.6929 18.1605 15.6929C19.5652 15.6929 20.7692 16.0011 21.7726 16.6173C21.9732 15.6929 22.3746 15.0767 23.1773 13.8442C24.2809 12.0982 23.3779 7.88713 22.0736 6.44922C21.8729 6.14109 21.6722 6.03838 21.3712 6.14109C21.2709 6.96276 20.8696 7.98984 20.2676 8.19525C16.6555 9.11963 13.2441 6.86005 13.0435 6.75734L12.8428 6.65463V6.44922C12.7425 4.29235 14.5485 1.62194 14.6488 1.51923L14.7492 1.31382H15.0502C16.6555 1.31382 18.0602 1.1084 19.1639 1.00569C20.3679 0.800277 21.2709 0.697569 21.8729 0.902985C23.6789 1.41652 30 10.5575 30 18.1579C30 20.1094 29.5987 21.7527 28.6957 23.0879L28.5953 23.2933H28.2943C28.2943 23.2933 25.3846 23.2933 23.8796 24.9367C22.0736 26.8881 20.5686 27.7098 18.2609 27.7098C17.0569 27.7098 15.8528 27.2989 14.8495 26.6827C13.4448 29.1477 10.7358 30.791 7.92642 30.791Z" fill="#060606"/>
<path d="M3.40003 4H2.40002V9.3H3.40003V4Z" fill="#FFDE00"/>
<path d="M3.40003 10.3H2.40002V11.3H3.40003V10.3Z" fill="#FFDE00"/>
<path d="M3.40003 12.2H2.40002V13.1999H3.40003V12.2Z" fill="#FFDE00"/>
<path d="M5.79993 2.6001H4.79993V7.4001H5.79993V2.6001Z" fill="#FFDE00"/>
<path d="M5.79993 8.30005H4.79993V9.30005H5.79993V8.30005Z" fill="#FFDE00"/>
<path d="M5.79993 10.3H4.79993V11.3H5.79993V10.3Z" fill="#FFDE00"/>
<path d="M8.29993 4H7.29993V10.3H8.29993V4Z" fill="#FFDE00"/>
<path d="M8.29993 11.2H7.29993V12.2H8.29993V11.2Z" fill="#FFDE00"/>
<path d="M9.39998 4.9L5.29998 1.3L1.29998 4.9L0.599976 4.1L5.29998 0L9.99998 4.1L9.39998 4.9Z" fill="#FFDE00"/>
</svg>
