<svg width="30" height="25" viewBox="0 0 30 25" fill="none" xmlns="http://www.w3.org/2000/svg">
<path d="M28.0073 3.55624L27.507 3.07667C24.7054 0.295154 20.2029 0.19924 17.3013 2.88484L15 4.99495L12.6987 2.78892C9.79709 0.103326 5.29457 0.19924 2.493 2.98075L1.99272 3.55624C-0.808844 6.24183 -0.608732 10.6539 2.29289 13.3395L4.9944 15.7373H8.49636L12.1984 5.57043C12.3985 4.99495 13.199 5.09086 13.299 5.66635L15.5003 15.8333L17.6015 11.0375C17.8016 10.558 18.502 10.558 18.7021 11.1335L20.1029 15.8333H25.0056L27.7071 13.4354C30.6087 10.6539 30.8088 6.24183 28.0073 3.55624Z" fill="#FFDE00"/>
<path d="M23.5049 17.0124H19.0024L18.0018 13.5179L15.7005 18.8096C15.5004 19.3088 14.7 19.209 14.5999 18.7098L12.4987 8.52563L9.49704 17.0124H6.49536L8.09626 18.5101L15.0001 24.9999L21.904 18.5101L23.5049 17.0124Z" fill="#FFDE00"/>
<path d="M15.3144 16.8433L12.692 5.59709C12.692 5.59709 12.692 5.50414 12.5871 5.50414C12.4822 5.50414 12.4822 5.50414 12.4822 5.59709L8.49618 15.7279H4.40527V14.7985H7.65702L11.4332 5.22531C11.7479 4.76059 12.1675 4.57471 12.692 4.57471C13.2165 4.57471 13.636 4.94648 13.7409 5.4112L15.7339 13.7761L17.3074 10.5231C17.5172 10.1513 17.9367 9.87249 18.4612 9.87249C18.9857 9.87249 19.3004 10.1513 19.5102 10.616L20.8738 14.7985H25.699V15.7279H20.1395L18.5661 10.8019C18.5661 10.8019 18.5661 10.709 18.4612 10.709C18.3563 10.709 18.3563 10.709 18.3563 10.709L15.3144 16.8433Z" fill="#060606"/>
<path d="M15.2098 19.167H15.1049C14.5804 19.167 14.2657 18.7952 14.1608 18.3305L12.2727 10.4303L9.65035 17.0293H0V16.0998H8.81119L12.4825 6.89844L15.1049 18.0517C15.1049 18.0517 15.1049 18.1446 15.2098 18.1446C15.3147 18.1446 15.3147 18.1446 15.3147 18.1446L18.2517 12.0103L19.6154 16.1928H30V17.1222H18.7762L18.042 14.7986L16.2587 18.5164C16.049 18.8882 15.6294 19.167 15.2098 19.167Z" fill="#060606"/>
<path d="M27.5869 9.22192H26.5386V10.1508H27.5869V9.22192Z" fill="#060606"/>
<path d="M25.4888 9.22192H24.4404V10.1508H25.4888V9.22192Z" fill="#060606"/>
<path d="M23.3911 9.22192H22.3428V10.1508H23.3911V9.22192Z" fill="#060606"/>
<path d="M7.65652 9.22192H6.60815V10.1508H7.65652V9.22192Z" fill="#060606"/>
<path d="M5.55886 9.22192H4.5105V10.1508H5.55886V9.22192Z" fill="#060606"/>
<path d="M3.46096 9.22192H2.4126V10.1508H3.46096V9.22192Z" fill="#060606"/>
</svg>
