<svg width="27" height="30" viewBox="0 0 27 30" fill="none" xmlns="http://www.w3.org/2000/svg">
<path d="M12.8253 26.6C17.9615 26.6 22.1253 22.481 22.1253 17.4C22.1253 12.3189 17.9615 8.19995 12.8253 8.19995C7.68902 8.19995 3.52527 12.3189 3.52527 17.4C3.52527 22.481 7.68902 26.6 12.8253 26.6Z" fill="#FFDE00"/>
<path d="M6.42517 15.5C5.62517 15.5 4.92517 16.2 4.92517 17V18.5C4.92517 19.3 5.62517 20 6.42517 20C7.22517 20 7.92517 19.3 7.92517 18.5V17C7.82517 16.1 7.22517 15.5 6.42517 15.5ZM6.92517 18.4C6.92517 18.7 6.72517 18.9 6.42517 18.9C6.12517 18.9 5.92517 18.7 5.92517 18.4V16.9C5.92517 16.6 6.12517 16.4 6.42517 16.4C6.72517 16.4 6.92517 16.6 6.92517 16.9V18.4Z" fill="#060606"/>
<path d="M9.8252 15.5C9.0252 15.5 8.3252 16.2 8.3252 17V18.5C8.3252 19.3 9.0252 20 9.8252 20C10.6252 20 11.3252 19.3 11.3252 18.5V17C11.3252 16.1 10.6252 15.5 9.8252 15.5ZM10.3252 18.4C10.3252 18.7 10.1252 18.9 9.8252 18.9C9.5252 18.9 9.3252 18.7 9.3252 18.4V16.9C9.3252 16.6 9.5252 16.4 9.8252 16.4C10.1252 16.4 10.3252 16.6 10.3252 16.9V18.4Z" fill="#060606"/>
<path d="M14.7252 16.5H15.2252V19.8H16.2252V15.5H14.7252V16.5Z" fill="#060606"/>
<path d="M18.6252 16.8999H18.1252V16.3999H19.6252V15.3999H17.1252V17.7999H18.6252C18.9252 17.7999 19.1252 17.9999 19.1252 18.2999C19.1252 18.5999 18.9252 18.7999 18.6252 18.7999H18.1252C17.8252 18.7999 17.6252 18.5999 17.6252 18.2999H16.6252C16.6252 19.0999 17.3252 19.7999 18.1252 19.7999H18.6252C19.4252 19.7999 20.1252 19.0999 20.1252 18.2999C20.1252 17.5999 19.5252 16.8999 18.6252 16.8999Z" fill="#060606"/>
<path d="M13.3252 16H12.3252V17H13.3252V16Z" fill="#060606"/>
<path d="M13.3252 18.3999H12.3252V19.3999H13.3252V18.3999Z" fill="#060606"/>
<path d="M23.1252 9.4C23.4252 9.6 23.8252 9.7 24.1252 9.7C25.1252 9.7 26.0252 8.9 26.0252 7.8C26.0252 7.3 25.8252 6.8 25.4252 6.5L22.8252 3.9C22.4252 3.6 22.0252 3.4 21.5252 3.4C20.5252 3.4 19.6252 4.2 19.6252 5.3C19.6252 5.7 19.7252 6 19.9252 6.3L19.4252 6.8C18.1252 6 16.7252 5.4 15.1252 5.1V4.4H15.2252C16.4252 4.4 17.4252 3.5 17.5252 2.3C17.5252 1.7 17.3252 1.1 16.9252 0.7C16.5252 0.3 15.9252 0 15.3252 0H10.0252C8.92521 0 7.92521 0.9 7.92521 2.1C7.92521 2.7 8.12521 3.3 8.52521 3.7C8.92521 4.1 9.52521 4.4 10.1252 4.4H10.3252V5.1C4.02521 6.3 -0.374786 11.8 0.0252138 18.2C0.425214 24.7 5.92521 29.9 12.5252 30C12.6252 30 12.7252 30 12.7252 30C16.1252 30 19.2252 28.7 21.6252 26.4C24.1252 24 25.4252 20.8 25.4252 17.4C25.4252 14.6 24.4252 11.9 22.7252 9.6L23.1252 9.4ZM24.5252 17.4C24.5252 20.5 23.2252 23.5 21.0252 25.7C18.7252 27.9 15.7252 29.1 12.5252 29C6.42521 28.9 1.42521 24.1 1.02521 18.1C0.625214 12.1 4.92521 6.9 10.9252 6L11.3252 5.9V4.4H13.3252V3.4H11.3252H10.8252H10.1252C9.72521 3.4 9.42521 3.3 9.22521 3C8.92521 2.8 8.82521 2.4 8.82521 2.1C8.92521 1.5 9.52521 1 10.2252 1H15.5252C15.8252 1 16.2252 1.1 16.4252 1.4C16.6252 1.6 16.8252 2 16.7252 2.3C16.7252 2.9 16.1252 3.4 15.4252 3.4H14.3252V5.9L14.6252 6C16.3252 6.3 17.8252 6.9 19.2252 7.8L19.6252 8L20.6252 7L21.2252 7.6L21.9252 6.9L20.9252 5.9L20.8252 5.8C20.6252 5.6 20.5252 5.4 20.5252 5.2C20.5252 4.7 20.9252 4.3 21.4252 4.3C21.6252 4.3 21.9252 4.4 22.0252 4.6L24.6252 7.2C24.9252 7.4 25.0252 7.6 25.0252 7.8C25.0252 8.3 24.6252 8.7 24.1252 8.7C23.9252 8.7 23.6252 8.6 23.5252 8.4L23.1252 8L21.5252 9.6L21.8252 9.9C23.5252 12 24.5252 14.7 24.5252 17.4Z" fill="#060606"/>
<path d="M13.3252 10.2H12.3252V11.2H13.3252V10.2Z" fill="#060606"/>
<path d="M15.2252 10.2H14.2252V11.2H15.2252V10.2Z" fill="#060606"/>
<path d="M11.3252 10.2H10.3252V11.2H11.3252V10.2Z" fill="#060606"/>
<path d="M13.3252 23.7H12.3252V24.7H13.3252V23.7Z" fill="#060606"/>
<path d="M15.2252 23.7H14.2252V24.7H15.2252V23.7Z" fill="#060606"/>
<path d="M11.3252 23.7H10.3252V24.7H11.3252V23.7Z" fill="#060606"/>
</svg>
