<svg width="50" height="50" viewBox="0 0 50 50" fill="none" xmlns="http://www.w3.org/2000/svg">
<path d="M41.1 50H8.9C4 50 0 46 0 41.1V8.9C0 4 4 0 8.9 0H41.2C46 0 50 4 50 8.9V41.2C50 46 46 50 41.1 50ZM8.9 1.6C4.9 1.6 1.6 4.9 1.6 8.9V41.2C1.6 45.2 4.9 48.5 8.9 48.5H41.2C45.2 48.5 48.5 45.2 48.5 41.2V8.9C48.5 4.9 45.2 1.6 41.2 1.6H8.9V1.6Z" fill="#060606"/>
<path d="M30.6 46.8H8.90005C5.80005 46.8 3.30005 44.3 3.30005 41.2V8.90005C3.30005 5.80005 5.80005 3.30005 8.90005 3.30005H18.6V4.90005H8.90005C6.70005 4.90005 4.90005 6.70005 4.90005 8.90005V41.2C4.90005 43.4 6.70005 45.2 8.90005 45.2H30.7001V46.8H30.6Z" fill="#060606"/>
<path d="M33.9001 45.2H32.3V46.7999H33.9001V45.2Z" fill="#060606"/>
<path d="M41.1 46.7999H35.5V45.2H41.1C43.3 45.2 45.1 43.4 45.1 41.2V8.89995C45.1 6.69995 43.3 4.89995 41.1 4.89995H30.6V3.19995H41.1C44.2 3.19995 46.7 5.69995 46.7 8.79995V41.0999C46.8 44.1999 44.2 46.7999 41.1 46.7999Z" fill="#060606"/>
<path d="M25 0.800049C18.8 0.800049 13.7 5.90005 13.7 12.1H36.2999C36.2999 5.90005 31.2 0.800049 25 0.800049Z" fill="#FFDE00"/>
<path d="M27.5675 6.03614L24.3429 11.6794L25.732 12.4732L28.9567 6.8299L27.5675 6.03614Z" fill="#060606"/>
<path d="M25.8001 0.800049H24.2001V3.20005H25.8001V0.800049Z" fill="#060606"/>
<path d="M20.1034 1.93584L18.7178 2.73584L19.9178 4.81424L21.3034 4.01424L20.1034 1.93584Z" fill="#060606"/>
<path d="M15.5958 5.71108L14.7957 7.09668L16.8741 8.29692L17.6742 6.91132L15.5958 5.71108Z" fill="#060606"/>
<path d="M34.3656 5.81684L32.287 7.0166L33.0868 8.40236L35.1655 7.2026L34.3656 5.81684Z" fill="#060606"/>
<path d="M29.9573 1.97849L28.7576 4.05713L30.1433 4.85697L31.3431 2.77833L29.9573 1.97849Z" fill="#060606"/>
<path d="M19.4 13.7C18.6 13.7 17.9 14.1 17.4 14.7C17.1 14.6 16.8 14.5 16.5 14.5C16 14.5 15.6 14.7 15.3 14.9C15 14.6 14.5 14.5 14.1 14.5C13.4 14.5 12.8 14.9 12.4 15.4C12.2 15.3 11.9 15.3 11.7 15.3C11 15.3 10.4 15.7 10 16.2C9.80005 16.1 9.50005 16.1 9.30005 16.1C8.20005 16.1 7.30005 17 7.30005 18.1V18.5V19.3V22.6C7.30005 25.3 7.40005 28 7.70005 30.7L8.50005 39.7C8.80005 42.4 11.1 44.4 13.8 44.4C16.5 44.4 18.8 42.3999 19.1 39.5999L19.4 32C19.5 30.2 19.9 28.4 20.6 26.7C21.5 24.6 21.9 22.5 21.9 20.2V19.4V18.6V16.2C21.8 14.8 20.7 13.7 19.4 13.7ZM20.2 19.4V20.2C20.2 22.2 19.8 24.2 19 26C18.2 27.9 17.7 29.9 17.7 31.9L17.4 39.4C17.2 41.3 15.6 42.7 13.7 42.7C11.8 42.7 10.2 41.3 10 39.4L9.20005 30.5C9.00005 27.9 8.80005 25.2 8.80005 22.6V19.3V18.5V18.1C8.80005 17.9 9.00005 17.7 9.20005 17.7C9.40005 17.7 9.60005 17.9 9.60005 18.1V19.3H11.2V18.1V17.3C11.2 17.1 11.4 16.9 11.6 16.9C11.8 16.9 12 17.1 12 17.3V19.3H13.6V17.3V16.5C13.6 16.3 13.8 16.1 14 16.1C14.2 16.1 14.4 16.3 14.4 16.5V19.3H16V16.5C16 16.3 16.2 16.1 16.4 16.1C16.6 16.1 16.8 16.3 16.8 16.5V19.3H18.4V16.5V16.1C18.4 15.7 18.8 15.3 19.2 15.3C19.6 15.3 20 15.7 20 16.1V18.5V19.4H20.2Z" fill="#060606"/>
<path d="M40.7001 16.1C40.4001 16.1 40.2001 16.2 40.0001 16.2C39.6001 15.6 39.0001 15.3 38.3001 15.3C38.0001 15.3 37.8001 15.4 37.6001 15.4C37.2001 14.8 36.6001 14.5 35.9001 14.5C35.4001 14.5 35.0001 14.7 34.7001 14.9C34.4001 14.6 33.9001 14.5 33.5001 14.5C33.2001 14.5 32.9001 14.6 32.6001 14.7C32.2001 14.1 31.4001 13.7 30.6001 13.7C29.3001 13.7 28.2001 14.8 28.2001 16.1V18.5V19.3V20.1C28.2001 22.3 28.6001 24.5 29.5001 26.6C30.2001 28.3 30.6001 30.1 30.7001 31.9L31.0001 39.5C31.3001 42.2 33.6001 44.2 36.3001 44.2C39.0001 44.2 41.3001 42.2 41.6001 39.5L42.4001 30.6C42.6001 27.9 42.8001 25.2 42.8001 22.5V19.2V18.4V18C42.7001 17 41.8001 16.1 40.7001 16.1ZM41.1001 19.4V22.7C41.1001 25.3 41.0001 28 40.7001 30.6L40.0001 39.5C39.8001 41.4 38.2001 42.8 36.3001 42.8C34.4001 42.8 32.8001 41.4 32.6001 39.6L32.3001 32C32.2001 30 31.8001 28 31.0001 26.1C30.2001 24.2 29.8001 22.3 29.8001 20.3V19.5V18.7V16.3C29.8001 15.9 30.2001 15.5 30.6001 15.5C31.0001 15.5 31.4001 15.9 31.4001 16.3V16.7V19.5H33.0001V16.7C33.0001 16.5 33.2001 16.3 33.4001 16.3C33.6001 16.3 33.8001 16.5 33.8001 16.7V19.5H35.4001V16.7C35.4001 16.5 35.6001 16.3 35.8001 16.3C36.0001 16.3 36.2001 16.5 36.2001 16.7V17.5V19.5H37.8001V17.5C37.8001 17.3 38.0001 17.1 38.2001 17.1C38.4001 17.1 38.6001 17.3 38.6001 17.5V18.3V19.5H40.2001V18.3C40.2001 18.1 40.4001 17.9 40.6001 17.9C40.8001 17.9 41.0001 18.1 41.0001 18.3V18.7V19.4H41.1001Z" fill="#060606"/>
</svg>
